<svg xmlns="http://www.w3.org/2000/svg" viewBox="0 0 100 100" width="100" height="100">
  <defs>
    <linearGradient id="bgGrad" x1="0%" y1="0%" x2="100%" y2="100%">
      <stop offset="0%" stop-color="#0f172a" />
      <stop offset="100%" stop-color="#064e3b" />
    </linearGradient>
    <linearGradient id="leafGrad" x1="0%" y1="0%" x2="100%" y2="100%">
      <stop offset="0%" stop-color="#34d399" />
      <stop offset="100%" stop-color="#10b981" />
    </linearGradient>
  </defs>
  
  <!-- Background Badge -->
  <rect width="100" height="100" rx="28" fill="url(#bgGrad)" />
  <rect x="3" y="3" width="94" height="94" rx="25" fill="none" stroke="#34d399" stroke-width="3" stroke-opacity="0.5" />
  
  <!-- Green Eco Leaf & Route Icon -->
  <path d="M50 16 C30 16 20 36 20 56 C20 72 34 82 50 82 C66 82 80 72 80 56 C80 36 70 16 50 16 Z" fill="url(#leafGrad)" />
  
  <!-- Central Leaf Vein & Navigation Arrow -->
  <path d="M50 22 L50 74" stroke="#ffffff" stroke-width="4.5" stroke-linecap="round" stroke-opacity="0.9" />
  <path d="M50 38 Q32 44 26 56" stroke="#ffffff" stroke-width="3.5" stroke-linecap="round" stroke-opacity="0.75" fill="none" />
  <path d="M50 50 Q68 56 74 66" stroke="#ffffff" stroke-width="3.5" stroke-linecap="round" stroke-opacity="0.75" fill="none" />
  
  <!-- Navigation Pin Accent -->
  <circle cx="50" cy="22" r="5" fill="#ffffff" />
</svg>
